<?xml version="1.0" encoding="utf-8"?>
<svg xmlns="http://www.w3.org/2000/svg" xmlns:svg="http://www.w3.org/2000/svg" version="1.1" viewBox="0 0 1400 440">
	<title>The titlepage for the Standard Ebooks edition of The Merry Wives of Windsor, by William Shakespeare</title>
	<g aria-label="THE MERRY">
		<path d="m 408.63596,68.245613 h 18.33918 V 130 h 17.59065 V 68.245613 h 18.33918 V 52.807016 h -54.26901 z"/>
		<path d="m 491.83041,99.029239 h 24.88888 V 130 h 17.59065 V 52.807016 H 516.71929 V 83.590642 H 491.83041 V 52.807016 H 474.23976 V 130 h 17.59065 z"/>
		<path d="M 594.67544,52.807016 H 550.5117 V 130 h 44.16374 v -15.4386 h -26.5731 V 99.029239 h 25.45029 V 83.590642 H 568.10234 V 68.245613 h 26.5731 z"/>
		<path d="m 704.18568,130 h 17.59064 L 714.85234,52.807016 H 696.13889 L 679.01609,97.345029 661.89328,52.807016 H 643.17983 L 636.25585,130 h 17.59064 l 3.64913,-45.754387 h 0.46783 l 15.81287,45.286547 h 10.47953 l 15.81287,-45.286547 h 0.46783 z"/>
		<path d="M 777.98686,52.807016 H 733.82311 V 130 h 44.16375 v -15.4386 h -26.5731 V 99.029239 h 25.45029 V 83.590642 H 751.41376 V 68.245613 h 26.5731 z"/>
		<path d="M 793.09942,52.807016 V 130 h 17.59064 V 99.497075 L 834.26901,130 h 22.36257 l -26.5731,-31.906433 c 9.4503,-2.994152 15.81287,-10.760234 15.81287,-22.362574 0,-15.157895 -10.8538,-22.923977 -25.16959,-22.923977 z m 17.59064,34.245615 V 66.842104 h 2.05848 c 6.64328,0 14.59649,0.467836 14.59649,10.105263 0,9.637428 -7.95321,10.105264 -14.59649,10.105264 z"/>
		<path d="M 865.16814,52.807016 V 130 h 17.59065 V 99.497075 L 906.33774,130 h 22.36257 l -26.5731,-31.906433 c 9.45029,-2.994152 15.81287,-10.760234 15.81287,-22.362574 0,-15.157895 -10.85381,-22.923977 -25.1696,-22.923977 z m 17.59065,34.245615 V 66.842104 h 2.05848 c 6.64327,0 14.59649,0.467836 14.59649,10.105263 0,9.637428 -7.95322,10.105264 -14.59649,10.105264 z"/>
		<path d="m 920.40938,52.807016 28.44445,42.5731 V 130 h 17.59064 V 95.380116 l 28.44445,-42.5731 h -21.1462 L 957.64915,77.508771 941.55558,52.807016 Z"/>
	</g>
	<g aria-label="WIVES OF WINDSOR">
		<path d="m 235.01754,230 h 19.46198 l 21.98831,-77.19298 h -19.46199 l -13.19298,52.95906 h -0.46784 l -14.03509,-52.95906 h -13.28655 l -14.03508,52.95906 h -0.46784 L 188.32748,152.80702 H 168.77192 L 190.76023,230 h 19.55555 l 12.35088,-43.32164 z"/>
		<path d="M 303.27777,152.80702 H 285.68712 V 230 h 17.59065 z"/>
		<path d="m 335.6608,230 h 13.84796 l 32.37427,-77.19298 h -19.83626 l -19.46199,50.71345 -19.46199,-50.71345 h -19.83626 z"/>
		<path d="M 433.96636,152.80702 H 389.80262 V 230 h 44.16374 v -15.4386 h -26.5731 v -15.53216 h 25.45029 v -15.4386 h -25.45029 v -15.34503 h 26.5731 z"/>
		<path d="m 477.5234,151.40351 c -12.44444,0 -25.16959,9.16959 -25.16959,23.57895 0,8.04678 5.4269,15.25146 14.69006,19.83625 9.16959,4.5848 17.40351,7.11111 17.40351,12.72515 0,7.20468 -7.29825,7.57895 -11.13451,7.57895 -8.60818,0 -18.90058,-8.70176 -18.90058,-8.70176 l -8.79532,14.78363 c 0,0 10.94737,10.19883 29.00584,10.19883 15.06433,0 29.09942,-6.45614 29.09942,-24.88889 0,-10.10526 -9.45029,-17.40351 -18.05848,-21.05263 -8.79532,-3.74269 -16.09357,-6.83041 -16.09357,-11.13451 0,-4.21052 3.18129,-6.92397 9.16959,-6.92397 7.95322,0 15.62574,5.33333 15.62574,5.33333 l 7.11111,-14.03509 c 0,0 -9.91813,-7.29824 -23.95322,-7.29824 z"/>
		<path d="m 544.06725,191.35672 c 0,22.54971 16.09357,40.04679 38.92398,40.04679 22.17544,0 38.83041,-17.49708 38.83041,-40.04679 0,-22.5497 -17.40351,-39.95321 -38.83041,-39.95321 -21.23977,0 -38.92398,17.40351 -38.92398,39.95321 z m 18.99416,0 c 0,-11.50877 6.36257,-23.01754 19.92982,-23.01754 13.66082,0 19.83626,11.50877 19.83626,23.01754 0,11.50878 -5.80117,23.01755 -19.83626,23.01755 -14.40936,0 -19.92982,-11.50877 -19.92982,-23.01755 z"/>
		<path d="M 679.2149,152.80702 H 634.58332 V 230 h 17.59064 v -30.97076 h 24.98246 v -15.4386 h -24.98246 v -15.34503 h 27.04094 z"/>
		<path d="m 774.35231,230 h 19.46199 l 21.98831,-77.19298 h -19.46199 l -13.19298,52.95906 h -0.46784 l -14.03509,-52.95906 h -13.28655 l -14.03509,52.95906 h -0.46783 L 727.66225,152.80702 H 708.1067 L 730.095,230 h 19.55556 l 12.35088,-43.32164 z"/>
		<path d="M 842.61259,152.80702 H 825.02195 V 230 h 17.59064 z"/>
		<path d="m 876.48686,182.09357 h 0.18713 L 907.36405,230 h 17.59065 v -77.19298 h -17.59065 v 47.90643 h -0.18713 L 876.48686,152.80702 H 858.89622 V 230 h 17.59064 z"/>
		<path d="M 941.19883,152.80702 V 230 h 22.36257 c 21.23977,0 38.924,-16.09357 38.924,-38.64328 0,-22.45614 -17.7778,-38.5497 -38.924,-38.5497 z m 17.59064,61.47368 v -45.75439 h 2.71345 c 13.09942,0 21.98831,10.0117 21.98831,22.92398 -0.0936,12.91228 -8.98246,22.83041 -21.98831,22.83041 z"/>
		<path d="m 1041.8947,151.40351 c -12.4444,0 -25.1696,9.16959 -25.1696,23.57895 0,8.04678 5.4269,15.25146 14.6901,19.83625 9.1696,4.5848 17.4035,7.11111 17.4035,12.72515 0,7.20468 -7.2982,7.57895 -11.1345,7.57895 -8.6082,0 -18.9006,-8.70176 -18.9006,-8.70176 l -8.7953,14.78363 c 0,0 10.9474,10.19883 29.0059,10.19883 15.0643,0 29.0994,-6.45614 29.0994,-24.88889 0,-10.10526 -9.4503,-17.40351 -18.0585,-21.05263 -8.7953,-3.74269 -16.0936,-6.83041 -16.0936,-11.13451 0,-4.21052 3.1813,-6.92397 9.1696,-6.92397 7.9532,0 15.6257,5.33333 15.6257,5.33333 l 7.1112,-14.03509 c 0,0 -9.9182,-7.29824 -23.9533,-7.29824 z"/>
		<path d="m 1077.8538,191.35672 c 0,22.54971 16.0936,40.04679 38.924,40.04679 22.1754,0 38.8304,-17.49708 38.8304,-40.04679 0,-22.5497 -17.4035,-39.95321 -38.8304,-39.95321 -21.2398,0 -38.924,17.40351 -38.924,39.95321 z m 18.9941,0 c 0,-11.50877 6.3626,-23.01754 19.9299,-23.01754 13.6608,0 19.8362,11.50877 19.8362,23.01754 0,11.50878 -5.8012,23.01755 -19.8362,23.01755 -14.4094,0 -19.9299,-11.50877 -19.9299,-23.01755 z"/>
		<path d="M 1168.3699,152.80702 V 230 h 17.5907 V 199.49708 L 1209.5395,230 h 22.3626 l -26.5731,-31.90643 c 9.4503,-2.99416 15.8128,-10.76024 15.8128,-22.36258 0,-15.15789 -10.8538,-22.92397 -25.1696,-22.92397 z m 17.5907,34.24561 V 166.8421 h 2.0584 c 6.6433,0 14.5965,0.46784 14.5965,10.10527 0,9.63742 -7.9532,10.10526 -14.5965,10.10526 z"/>
	</g>
	<g aria-label="WILLIAM SHAKESPEARE">
		<path d="m 267.22807,390 h 14.59649 l 16.49123,-57.89474 H 283.7193 l -9.89473,39.7193 h -0.35088 l -10.52632,-39.7193 h -9.96491 l -10.52632,39.7193 h -0.35087 l -9.89474,-39.7193 H 217.54386 L 234.03509,390 h 14.66667 l 9.26316,-32.49123 z"/>
		<path d="M 319.67325,332.10526 H 306.48027 V 390 h 13.19298 z"/>
		<path d="M 346.32895,332.10526 H 333.13597 V 390 h 33.12281 v -11.57895 h -19.92983 z"/>
		<path d="M 390.9397,332.10526 H 377.74672 V 390 h 33.12281 V 378.42105 H 390.9397 Z"/>
		<path d="M 435.55045,332.10526 H 422.35747 V 390 h 13.19298 z"/>
		<path d="M 478.41668,332.10526 H 466.20615 L 442.83773,390 h 14.17544 l 4.2807,-11.57895 h 22.03509 L 487.60966,390 h 14.17544 z m 0.42105,34.73685 H 465.7851 L 472.24124,350 h 0.14035 z"/>
		<path d="m 556.83443,390 h 13.19298 l -5.19298,-57.89474 h -14.03509 l -12.84211,33.40351 -12.8421,-33.40351 H 511.08004 L 505.88706,390 h 13.19298 l 2.73684,-34.31579 h 0.35088 l 11.85965,33.96491 h 7.85965 l 11.85965,-33.96491 h 0.35087 z"/>
		<path d="m 624.46381,331.05263 c -9.33333,0 -18.87719,6.8772 -18.87719,17.68421 0,6.03509 4.07017,11.4386 11.01754,14.8772 6.87719,3.43859 13.05263,5.33333 13.05263,9.54385 0,5.40351 -5.47368,5.68422 -8.35087,5.68422 -6.45614,0 -14.17544,-6.52632 -14.17544,-6.52632 l -6.59649,11.08772 c 0,0 8.21052,7.64912 21.75438,7.64912 11.29825,0 21.82456,-4.8421 21.82456,-18.66666 0,-7.57895 -7.08772,-13.05264 -13.54386,-15.78948 -6.59649,-2.80702 -12.07017,-5.12281 -12.07017,-8.35088 0,-3.15789 2.38596,-5.19298 6.87719,-5.19298 5.96491,0 11.7193,4 11.7193,4 l 5.33333,-10.52631 c 0,0 -7.43859,-5.47369 -17.96491,-5.47369 z"/>
		<path d="m 668.4726,366.77193 h 18.66667 V 390 h 13.19298 v -57.89474 h -13.19298 v 23.08772 H 668.4726 V 332.10526 H 655.27962 V 390 h 13.19298 z"/>
		<path d="M 743.13704,332.10526 H 730.92652 L 707.5581,390 h 14.17544 l 4.2807,-11.57895 h 22.03508 L 752.33003,390 h 14.17543 z m 0.42106,34.73685 H 730.50547 L 736.96161,350 h 0.14035 z"/>
		<path d="m 826.39696,390 -26.94737,-30.45614 23.29825,-27.4386 h -16 l -19.85965,23.64913 V 332.10526 H 773.69521 V 390 h 13.19298 V 365.4386 L 808.22152,390 Z"/>
		<path d="M 867.05373,332.10526 H 833.93092 V 390 h 33.12281 v -11.57895 h -19.92982 v -11.64912 h 19.08771 v -11.57895 h -19.08771 v -11.50877 h 19.92982 z"/>
		<path d="m 900.97147,331.05263 c -9.33333,0 -18.87719,6.8772 -18.87719,17.68421 0,6.03509 4.07017,11.4386 11.01754,14.8772 6.87719,3.43859 13.05263,5.33333 13.05263,9.54385 0,5.40351 -5.47368,5.68422 -8.35087,5.68422 -6.45614,0 -14.17544,-6.52632 -14.17544,-6.52632 l -6.59649,11.08772 c 0,0 8.21052,7.64912 21.75438,7.64912 11.29825,0 21.82456,-4.8421 21.82456,-18.66666 0,-7.57895 -7.08772,-13.05264 -13.54386,-15.78948 -6.59649,-2.80702 -12.07017,-5.12281 -12.07017,-8.35088 0,-3.15789 2.38596,-5.19298 6.87719,-5.19298 5.96491,0 11.7193,4 11.7193,4 l 5.33333,-10.52631 c 0,0 -7.43859,-5.47369 -17.96491,-5.47369 z"/>
		<path d="M 931.78731,332.10526 V 390 h 13.19298 v -21.47368 h 7.92982 c 11.29825,0 19.78948,-6.66667 19.78948,-18.5965 0,-11.99999 -8.49123,-17.82456 -19.78948,-17.82456 z M 944.98029,358 v -15.36842 h 3.7193 c 5.19298,0 10.10526,1.75439 10.10526,7.7193 0,5.89473 -4.91228,7.64912 -10.10526,7.64912 z"/>
		<path d="M 1016.648,332.10526 H 983.52522 V 390 h 33.12278 v -11.57895 h -19.9298 v -11.64912 h 19.0877 v -11.57895 h -19.0877 v -11.50877 h 19.9298 z"/>
		<path d="m 1059.0471,332.10526 h -12.2105 L 1023.4682,390 h 14.1754 l 4.2807,-11.57895 h 22.0351 L 1068.2401,390 h 14.1755 z m 0.4211,34.73685 h -13.0526 L 1052.8717,350 h 0.1404 z"/>
		<path d="M 1089.6052,332.10526 V 390 h 13.193 V 367.12281 L 1120.4824,390 h 16.772 l -19.9299,-23.92982 c 7.0878,-2.24562 11.8597,-8.07018 11.8597,-16.77193 0,-11.36842 -8.1404,-17.19299 -18.8772,-17.19299 z m 13.193,25.68421 v -15.15789 h 1.5439 c 4.9824,0 10.9473,0.35088 10.9473,7.57895 0,7.22807 -5.9649,7.57894 -10.9473,7.57894 z"/>
		<path d="m 1178.0296,332.10526 h -33.1228 V 390 h 33.1228 v -11.57895 h -19.9298 v -11.64912 h 19.0877 v -11.57895 h -19.0877 v -11.50877 h 19.9298 z"/>
	</g>
</svg>
